#!OML:ASF X:\für Bonn\!DataBase\2005_08_10_Bjorn_Final\c3d\bjorn.ASF
:FULLY-SPECIFIED
:DEGREES
78
root 1.58428 18.3856 5.22652 -181.282 -9.57823 -179.522
lowerback -0.523401 -0.24096 2.87304
upperback 10.1896 -1.36595 -1.14002
thorax 11.0959 -0.724666 -3.04469
lowerneck -1.95832 5.03788 2.22423
upperneck 22.2832 6.06035 -4.74625
head 7.35426 2.07673 -1.58239
rclavicle 1.75924e-014 -4.57205e-014
rhumerus -31.5653 -13.9386 -83.1981
rradius 31.2406
rwrist 3.9751
rhand -5.74123 9.47422
rfingers 7.12502
rthumb 20.0811 -19.508
lclavicle 1.75924e-014 -4.57205e-014
lhumerus -24.7977 -24.9135 87.8339
lradius 48.4275
lwrist -16.2079
lhand -15.5948 -8.16104
lfingers 7.12502
lthumb 10.5911 21.5521
rfemur -29.9426 -4.66967 17.7715
rtibia 47.6085
rfoot -14.2062 14.5558
rtoes -8.69813
lfemur -1.9278 11.2492 -16.4725
ltibia 36.6807
lfoot -26.6382 -7.55686
ltoes -5.98235
79
root 1.58753 18.375 5.16333 -181.257 -9.57729 -179.535
lowerback -0.595033 -0.229366 3.20294
upperback 10.2519 -1.39441 -1.02572
thorax 11.2109 -0.714363 -3.11378
lowerneck -1.94294 5.09227 2.05151
upperneck 22.2271 6.17683 -4.84949
head 7.33513 2.11357 -1.57863
rclavicle 1.87852e-014 5.36719e-015
rhumerus -31.2695 -14.0371 -83.2169
rradius 31.031
rwrist 4.17733
rhand -5.76407 9.50393
rfingers 7.12502
rthumb 20.0591 -19.4806
lclavicle 1.87852e-014 5.36719e-015
lhumerus -24.7563 -24.9028 87.9509
lradius 48.5239
lwrist -16.2044
lhand -15.9436 -8.47179
lfingers 7.12502
lthumb 10.2545 21.2582
rfemur -29.7968 -4.51755 17.7878
rtibia 47.6326
rfoot -14.112 14.6976
rtoes -8.23286
lfemur -1.73833 10.9048 -16.5201
ltibia 36.6828
lfoot -26.9004 -7.07867
ltoes -6.47718
80
root 1.59036 18.365 5.09812 -181.225 -9.57124 -179.521
lowerback -0.700939 -0.22116 3.55334
upperback 10.3204 -1.43323 -0.901006
thorax 11.354 -0.70685 -3.18529
lowerneck -1.94018 5.14816 1.923
upperneck 22.1663 6.30322 -5.01143
head 7.32044 2.15412 -1.60042
rclavicle -2.26118e-014 -3.97569e-016
rhumerus -30.9671 -14.0985 -83.248
rradius 30.8305
rwrist 4.28327
rhand -5.85744 9.50294
rfingers 7.12502
rthumb 19.9694 -19.491
lclavicle -2.26118e-014 -3.97569e-016
lhumerus -24.7271 -24.894 88.0687
lradius 48.636
lwrist -16.1448
lhand -16.3011 -8.77606
lfingers 7.12502
lthumb 9.9097 20.9707
rfemur -29.6583 -4.39971 17.8435
rtibia 47.6657
rfoot -14.085 14.7994
rtoes -8.16553
lfemur -1.55005 10.5231 -16.5553
ltibia 36.6672
lfoot -27.1311 -6.56967
ltoes -6.96906
81
root 1.59351 18.3555 5.03168 -181.191 -9.57961 -179.479
lowerback -0.815958 -0.204316 3.9296
upperback 10.3766 -1.46216 -0.769904
thorax 11.49 -0.691407 -3.26292
lowerneck -1.88222 5.18879 1.77039
upperneck 22.0757 6.39776 -5.11635
head 7.28239 2.18405 -1.60299
rclavicle 7.85199e-015 -5.56597e-015
rhumerus -30.6891 -14.2033 -83.2633
rradius 30.6303
rwrist 4.34344
rhand -5.93966 9.48555
rfingers 7.12502
rthumb 19.8904 -19.5166
lclavicle 7.85199e-015 -5.56597e-015
lhumerus -24.7286 -24.9075 88.2222
lradius 48.7306
lwrist -16.1266
lhand -16.7017 -9.05312
lfingers 7.12502
lthumb 9.52321 20.7117
rfemur -29.5217 -4.27049 17.9274
rtibia 47.7104
rfoot -14.0897 14.8534
rtoes -8.11823
lfemur -1.35155 10.1591 -16.5538
ltibia 36.6252
lfoot -27.3372 -6.07388
ltoes -7.5338
82
root 1.59733 18.3474 4.96547 -181.155 -9.6066 -179.451
lowerback -0.920413 -0.197376 4.27097
upperback 10.4305 -1.50374 -0.639472
thorax 11.6165 -0.685512 -3.32246
lowerneck -1.85504 5.23153 1.66885
upperneck 22.0293 6.49605 -5.26083
head 7.26757 2.21379 -1.62639
rclavicle -3.77691e-015 8.44835e-015
rhumerus -30.3909 -14.3701 -83.2438
rradius 30.362
rwrist 4.45372
rhand -5.98303 9.48887
rfingers 7.12502
rthumb 19.8487 -19.5176
lclavicle -3.77691e-015 8.44835e-015
lhumerus -24.7477 -24.9212 88.3798
lradius 48.8233
lwrist -16.0427
lhand -17.1201 -9.33129
lfingers 7.12502
lthumb 9.11943 20.4515
rfemur -29.3795 -4.15504 17.9944
rtibia 47.7633
rfoot -14.1488 14.884
rtoes -8.18456
lfemur -1.14573 9.76266 -16.5702
ltibia 36.5589
lfoot -27.5041 -5.59596
ltoes -7.98183
83
root 1.60097 18.3424 4.89841 -181.126 -9.65595 -179.422
lowerback -1.02189 -0.19744 4.58981
upperback 10.485 -1.55776 -0.486672
thorax 11.7417 -0.68929 -3.34625
lowerneck -1.78292 5.27552 1.56422
upperneck 21.9354 6.59868 -5.42029
head 7.22986 2.247 -1.65461
rclavicle 1.53064e-014 -1.9133e-015
rhumerus -30.0686 -14.5746 -83.1824
rradius 30.0573
rwrist 4.55009
rhand -6.04075 9.47424
rfingers 7.12502
rthumb 19.7932 -19.538
lclavicle 1.53064e-014 -1.9133e-015
lhumerus -24.756 -24.89 88.5856
lradius 48.8687
lwrist -15.9535
lhand -17.5357 -9.62908
lfingers 7.12502
lthumb 8.71844 20.1709
rfemur -29.2261 -4.05999 18.0589
rtibia 47.8313
rfoot -14.2483 14.8777
rtoes -8.25327
lfemur -0.917998 9.34309 -16.5873
ltibia 36.4608
lfoot -27.6375 -5.12811
ltoes -8.34422
84
root 1.60482 18.3399 4.83085 -181.081 -9.69988 -179.364
lowerback -1.12945 -0.203074 4.94265
upperback 10.5163 -1.61861 -0.338833
thorax 11.8432 -0.692011 -3.39423
lowerneck -1.65849 5.31623 1.49059
upperneck 21.8165 6.69369 -5.6002
head 7.17633 2.27849 -1.69642
rclavicle -8.64713e-015 5.36719e-015
rhumerus -29.8448 -14.759 -83.1346
rradius 29.883
rwrist 4.61886
rhand -6.04418 9.39694
rfingers 7.12502
rthumb 19.7899 -19.6156
lclavicle -8.64713e-015 5.36719e-015
lhumerus -24.8394 -24.8666 88.7929
lradius 48.9553
lwrist -15.8234
lhand -17.9338 -9.85918
lfingers 7.12502
lthumb 8.33422 19.9564
rfemur -29.0918 -3.97913 18.1618
rtibia 47.9062
rfoot -14.3876 14.8498
rtoes -8.41613
lfemur -0.700742 8.93019 -16.5795
ltibia 36.3433
lfoot -27.7354 -4.66128
ltoes -8.71855
85
root 1.60848 18.3388 4.76414 -181.033 -9.75262 -179.321
lowerback -1.21924 -0.212339 5.28592
upperback 10.5501 -1.68556 -0.195126
thorax 11.9365 -0.699081 -3.4415
lowerneck -1.57281 5.36366 1.43005
upperneck 21.7121 6.79918 -5.78197
head 7.13558 2.31569 -1.7394
rclavicle 1.56046e-014 -2.18663e-015
rhumerus -29.6663 -14.9038 -83.0915
rradius 29.8691
rwrist 4.55342
rhand -6.02139 9.25761
rfingers 7.12502
rthumb 19.8118 -19.7527
lclavicle 1.56046e-014 -2.18663e-015
lhumerus -24.8791 -24.81 89.0081
lradius 48.9799
lwrist -15.6515
lhand -18.3376 -10.1062
lfingers 7.12502
lthumb 7.94454 19.7245
rfemur -28.9694 -3.93324 18.2504
rtibia 47.9919
rfoot -14.5242 14.8257
rtoes -8.60377
lfemur -0.484092 8.51976 -16.585
ltibia 36.21
lfoot -27.7901 -4.21403
ltoes -9.09963
86
root 1.61303 18.3391 4.69917 -181.003 -9.82192 -179.261
lowerback -1.24606 -0.23252 5.62808
upperback 10.556 -1.76209 -0.0375276
thorax 11.9577 -0.713719 -3.47102
lowerneck -1.43845 5.41075 1.37558
upperneck 21.6084 6.89738 -5.96111
head 7.08647 2.34957 -1.78441
rclavicle -6.4605e-015 -9.74045e-015
rhumerus -29.5395 -15.1222 -82.9804
rradius 29.845
rwrist 4.58448
rhand -5.91918 9.12825
rfingers 7.12502
rthumb 19.91 -19.8719
lclavicle -6.4605e-015 -9.74045e-015
lhumerus -24.9767 -24.7075 89.2721
lradius 48.9858
lwrist -15.5097
lhand -18.7205 -10.3406
lfingers 7.12502
lthumb 7.57497 19.5038
rfemur -28.821 -3.90663 18.3534
rtibia 48.0729
rfoot -14.6744 14.789
rtoes -8.74318
lfemur -0.258779 8.11717 -16.5645
ltibia 36.0801
lfoot -27.8073 -3.81899
ltoes -9.36932
87
root 1.61833 18.3422 4.63634 -180.94 -9.92575 -179.217
lowerback -1.28582 -0.267805 5.96447
upperback 10.5577 -1.85645 0.0967784
thorax 11.9793 -0.735613 -3.52466
lowerneck -1.35293 5.46405 1.36182
upperneck 21.5337 7.00167 -6.12961
head 7.05701 2.38949 -1.83124
rclavicle 1.31198e-014 -4.96962e-015
rhumerus -29.4048 -15.3522 -82.9135
rradius 29.8638
rwrist 4.57113
rhand -5.83058 8.99096
rfingers 7.12502
rthumb 19.9952 -20.0003
lclavicle 1.31198e-014 -4.96962e-015
lhumerus -25.0611 -24.6332 89.4943
lradius 49.0076
lwrist -15.339
lhand -19.0915 -10.5056
lfingers 7.12502
lthumb 7.21686 19.3513
rfemur -28.7023 -3.92719 18.4431
rtibia 48.1466
rfoot -14.8486 14.7323
rtoes -9.07616
lfemur -0.0884006 7.68457 -16.5662
ltibia 35.9632
lfoot -27.7933 -3.40836
ltoes -9.72437
88
root 1.6255 18.3462 4.57529 -180.9 -10.0645 -179.17
lowerback -1.2692 -0.320633 6.26969
upperback 10.5527 -1.97072 0.243574
thorax 11.9563 -0.773477 -3.54741
lowerneck -1.23114 5.52069 1.31815
upperneck 21.4202 7.10658 -6.2692
head 7.00661 2.4325 -1.86435
rclavicle -8.74653e-015 1.11319e-014
rhumerus -29.2934 -15.5875 -82.8086
rradius 29.8926
rwrist 4.59238
rhand -5.70415 8.87133
rfingers 7.12502
rthumb 20.1167 -20.1072
lclavicle -8.74653e-015 1.11319e-014
lhumerus -25.1293 -24.4776 89.7419
lradius 48.9748
lwrist -15.2085
lhand -19.4644 -10.6533
lfingers 7.12502
lthumb 6.85685 19.2157
rfemur -28.5532 -3.99472 18.5395
rtibia 48.2018
rfoot -15.0045 14.6808
rtoes -9.24949
lfemur 0.0813668 7.27172 -16.5414
ltibia 35.8742
lfoot -27.738 -3.07455
ltoes -10.126
89
root 1.63514 18.3509 4.51301 -180.85 -10.239 -179.14
lowerback -1.27387 -0.378232 6.52957
upperback 10.5497 -2.08937 0.388499
thorax 11.9481 -0.817158 -3.54793
lowerneck -1.11619 5.57391 1.30476
upperneck 21.2973 7.2077 -6.41929
head 6.95586 2.47652 -1.90592
rclavicle 1.30204e-014 -1.39149e-014
rhumerus -29.1967 -15.8505 -82.7177
rradius 29.9413
rwrist 4.61249
rhand -5.64027 8.76931
rfingers 7.12502
rthumb 20.1781 -20.2027
lclavicle 1.30204e-014 -1.39149e-014
lhumerus -25.1838 -24.3167 89.9905
lradius 48.9293
lwrist -15.0988
lhand -19.8023 -10.779
lfingers 7.12502
lthumb 6.53071 19.1003
rfemur -28.39 -4.07085 18.6211
rtibia 48.2336
rfoot -15.1635 14.6227
rtoes -9.18783
lfemur 0.216338 6.88025 -16.5078
ltibia 35.821
lfoot -27.6535 -2.83653
ltoes -10.3701
90
root 1.64465 18.3559 4.45181 -180.783 -10.3933 -179.124
lowerback -1.28205 -0.43631 6.77564
upperback 10.5373 -2.20453 0.520535
thorax 11.9308 -0.859604 -3.55401
lowerneck -1.0132 5.64225 1.27321
upperneck 21.1792 7.32507 -6.53159
head 6.90768 2.53016 -1.93089
rclavicle -3.97569e-015 0
rhumerus -29.1377 -16.1412 -82.6182
rradius 30.0171
rwrist 4.69612
rhand -5.60179 8.69754
rfingers 7.12502
rthumb 20.2151 -20.2706
lclavicle -3.97569e-015 0
lhumerus -25.2129 -23.9113 90.2349
lradius 48.7838
lwrist -15.1724
lhand -20.1654 -11.0255
lfingers 7.12502
lthumb 6.18014 18.8644
rfemur -28.2365 -4.20894 18.6903
rtibia 48.2404
rfoot -15.292 14.6652
rtoes -8.81826
lfemur 0.314206 6.53886 -16.4857
ltibia 35.8099
lfoot -27.5477 -2.61217
ltoes -10.7201
